<svg width="1525" height="224" viewBox="0 0 1525 224" fill="none" xmlns="http://www.w3.org/2000/svg">
<mask id="path-1-inside-1_0_30" fill="white">
<path d="M61.2288 224C49.7745 224 39.3614 221.188 29.9896 215.565C20.8261 209.733 13.537 202.027 8.12219 192.446C2.7074 182.866 0 172.139 0 160.268L0.312392 62.795C0.312392 51.3398 2.91566 40.9261 8.12219 31.5537C13.537 21.973 20.8261 14.371 29.9896 8.74756C39.3614 2.91585 49.7745 0 61.2288 0C72.6832 0 82.9922 2.81172 92.1557 8.43515C101.319 14.0586 108.608 21.6606 114.023 31.2413C119.438 40.6137 122.145 51.1316 122.145 62.795V77.166C122.145 77.9991 121.729 78.4156 120.896 78.4156H85.9078C85.0748 78.4156 84.6582 77.9991 84.6582 77.166V62.795C84.6582 55.9219 82.3674 49.986 77.7856 44.9874C73.4121 39.9888 67.8932 37.4895 61.2288 37.4895C53.7314 37.4895 48.0042 40.093 44.0473 45.2999C40.0903 50.2985 38.1118 56.1302 38.1118 62.795V160.268C38.1118 167.974 40.2986 174.222 44.6721 179.013C49.2538 183.803 54.7727 186.198 61.2288 186.198C67.8932 186.198 73.4121 183.595 77.7856 178.388C82.3674 172.973 84.6582 166.933 84.6582 160.268V145.897C84.6582 145.064 85.0748 144.647 85.9078 144.647H121.208C122.041 144.647 122.458 145.064 122.458 145.897V160.268C122.458 172.139 119.646 182.866 114.023 192.446C108.608 202.027 101.319 209.733 92.1557 215.565C82.9922 221.188 72.6832 224 61.2288 224ZM146.551 220.876C145.718 220.876 145.301 220.355 145.301 219.314L145.614 4.68619C145.614 3.85309 146.134 3.43653 147.176 3.43653H181.851C182.893 3.43653 183.413 3.85309 183.413 4.68619L183.101 89.6625H229.96V4.68619C229.96 3.85309 230.376 3.43653 231.209 3.43653H265.885C266.926 3.43653 267.447 3.85309 267.447 4.68619L268.071 219.314C268.071 220.355 267.551 220.876 266.509 220.876H231.522C230.48 220.876 229.96 220.355 229.96 219.314V127.464H183.101V219.314C183.101 220.355 182.684 220.876 181.851 220.876H146.551ZM282.944 219.314L321.681 4.68619C321.889 3.85309 322.41 3.43653 323.243 3.43653H368.54C369.373 3.43653 369.893 3.85309 370.102 4.68619L407.276 219.314C407.485 220.355 407.068 220.876 406.027 220.876H371.351C370.518 220.876 369.997 220.355 369.789 219.314L366.353 196.508H323.868L320.431 219.314C320.223 220.355 319.702 220.876 318.869 220.876H284.194C283.361 220.876 282.944 220.355 282.944 219.314ZM330.115 163.079H360.105L347.297 75.2915L345.423 63.7322L344.173 75.2915L330.115 163.079ZM428.131 220.876C427.298 220.876 426.881 220.355 426.881 219.314L427.506 4.68619C427.506 3.85309 427.923 3.43653 428.756 3.43653H466.867C467.701 3.43653 468.429 3.85309 469.054 4.68619L497.482 45.9247L525.91 4.68619C526.534 3.85309 527.263 3.43653 528.096 3.43653H566.521C567.354 3.43653 567.77 3.85309 567.77 4.68619L568.395 219.314C568.395 220.355 567.978 220.876 567.145 220.876H531.845C531.012 220.876 530.595 220.355 530.595 219.314L530.283 59.9832L497.482 107.47L464.993 59.9832L464.681 219.314C464.681 220.355 464.264 220.876 463.431 220.876H428.131ZM596.232 220.876C595.191 220.876 594.67 220.355 594.67 219.314L595.295 4.68619C595.295 3.85309 595.711 3.43653 596.544 3.43653H656.524C675.684 3.43653 690.783 9.26824 701.82 20.9317C713.067 32.5951 718.69 48.424 718.69 68.4184C718.69 83.2059 715.774 96.0149 709.943 106.845C704.111 117.675 696.51 126.007 687.138 131.838C677.766 137.67 667.561 140.586 656.524 140.586H632.782V219.314C632.782 220.355 632.261 220.876 631.22 220.876H596.232ZM632.782 102.784H656.524C663.188 102.784 668.915 99.6597 673.705 93.4114C678.703 86.9549 681.203 78.6239 681.203 68.4184C681.203 60.2957 679.016 53.6309 674.642 48.424C670.269 43.2171 664.229 40.6137 656.524 40.6137L632.782 40.9261V102.784ZM817.493 220.876C816.66 220.876 816.244 220.355 816.244 219.314V41.2385H775.633C774.592 41.2385 774.071 40.7178 774.071 39.6764L774.383 4.68619C774.383 3.85309 774.8 3.43653 775.633 3.43653H894.342C895.383 3.43653 895.904 3.85309 895.904 4.68619V39.6764C895.904 40.7178 895.487 41.2385 894.654 41.2385H853.731L854.043 219.314C854.043 220.355 853.627 220.876 852.794 220.876H817.493ZM912.583 220.876C911.75 220.876 911.333 220.355 911.333 219.314L911.645 4.68619C911.645 3.85309 912.166 3.43653 913.207 3.43653H947.883C948.924 3.43653 949.445 3.85309 949.445 4.68619L949.133 89.6625H995.991V4.68619C995.991 3.85309 996.408 3.43653 997.241 3.43653H1031.92C1032.96 3.43653 1033.48 3.85309 1033.48 4.68619L1034.1 219.314C1034.1 220.355 1033.58 220.876 1032.54 220.876H997.553C996.512 220.876 995.991 220.355 995.991 219.314V127.464H949.133V219.314C949.133 220.355 948.716 220.876 947.883 220.876H912.583ZM1060.85 220.876C1060.01 220.876 1059.6 220.355 1059.6 219.314L1060.22 4.68619C1060.22 3.85309 1060.64 3.43653 1061.47 3.43653H1124.57C1135.82 3.43653 1146.13 6.24825 1155.5 11.8717C1165.08 17.2868 1172.68 24.6806 1178.31 34.053C1183.93 43.2171 1186.74 53.6309 1186.74 65.2943C1186.74 73.0005 1185.6 79.9777 1183.3 86.2259C1181.01 92.2659 1178.31 97.4728 1175.18 101.847C1172.06 106.012 1169.25 109.136 1166.75 111.219C1177.99 123.715 1183.62 138.399 1183.62 155.269L1183.93 219.314C1183.93 220.355 1183.41 220.876 1182.37 220.876H1147.07C1146.23 220.876 1145.82 220.563 1145.82 219.939V155.269C1145.82 147.771 1143.11 141.315 1137.7 135.9C1132.49 130.276 1126.03 127.464 1118.33 127.464H1097.71L1097.4 219.314C1097.4 220.355 1096.98 220.876 1096.15 220.876H1060.85ZM1097.71 89.9749H1124.57C1131.03 89.9749 1136.76 87.5797 1141.76 82.7894C1146.75 77.9991 1149.25 72.1674 1149.25 65.2943C1149.25 58.6295 1146.75 52.9019 1141.76 48.1116C1136.97 43.3212 1131.24 40.9261 1124.57 40.9261H1097.71V89.9749ZM1266.57 224C1255.32 224 1245.01 221.188 1235.64 215.565C1226.48 209.733 1219.09 202.131 1213.46 192.759C1207.84 183.178 1205.03 172.66 1205.03 161.205L1205.34 62.1702C1205.34 50.715 1208.05 40.3013 1213.46 30.9289C1219.09 21.5565 1226.58 14.0586 1235.95 8.43515C1245.33 2.81172 1255.53 0 1266.57 0C1277.82 0 1288.02 2.81172 1297.18 8.43515C1306.35 14.0586 1313.64 21.5565 1319.05 30.9289C1324.67 40.3013 1327.49 50.715 1327.49 62.1702L1327.8 161.205C1327.8 172.66 1324.99 183.178 1319.36 192.759C1313.95 202.131 1306.56 209.733 1297.18 215.565C1288.02 221.188 1277.82 224 1266.57 224ZM1266.57 186.198C1272.82 186.198 1278.23 183.699 1282.81 178.7C1287.6 173.493 1290 167.662 1290 161.205L1289.69 62.1702C1289.69 55.2971 1287.5 49.4654 1283.13 44.675C1278.75 39.8847 1273.23 37.4895 1266.57 37.4895C1260.11 37.4895 1254.59 39.8847 1250.01 44.675C1245.43 49.2571 1243.14 55.0888 1243.14 62.1702V161.205C1243.14 168.078 1245.43 174.014 1250.01 179.013C1254.59 183.803 1260.11 186.198 1266.57 186.198ZM1374.8 220.876C1373.97 220.876 1373.44 220.355 1373.24 219.314L1336.37 4.68619C1336.17 3.85309 1336.48 3.43653 1337.31 3.43653H1372.3C1373.13 3.43653 1373.65 3.85309 1373.86 4.68619L1393.85 145.897L1414.47 4.68619C1414.68 3.85309 1415.31 3.43653 1416.35 3.43653H1444.46C1445.29 3.43653 1445.82 3.85309 1446.02 4.68619L1466.33 145.897L1486.63 4.68619C1486.84 3.85309 1487.36 3.43653 1488.2 3.43653H1522.87C1523.91 3.43653 1524.33 3.85309 1524.12 4.68619L1486.95 219.314C1486.74 219.73 1486.43 220.147 1486.01 220.563C1485.59 220.772 1485.39 220.876 1485.39 220.876H1447.59C1446.96 220.876 1446.44 220.355 1446.02 219.314L1430.09 107.158L1414.16 219.314C1413.95 220.355 1413.43 220.876 1412.6 220.876H1374.8Z"/>
</mask>
<path d="M61.2288 224C49.7745 224 39.3614 221.188 29.9896 215.565C20.8261 209.733 13.537 202.027 8.12219 192.446C2.7074 182.866 0 172.139 0 160.268L0.312392 62.795C0.312392 51.3398 2.91566 40.9261 8.12219 31.5537C13.537 21.973 20.8261 14.371 29.9896 8.74756C39.3614 2.91585 49.7745 0 61.2288 0C72.6832 0 82.9922 2.81172 92.1557 8.43515C101.319 14.0586 108.608 21.6606 114.023 31.2413C119.438 40.6137 122.145 51.1316 122.145 62.795V77.166C122.145 77.9991 121.729 78.4156 120.896 78.4156H85.9078C85.0748 78.4156 84.6582 77.9991 84.6582 77.166V62.795C84.6582 55.9219 82.3674 49.986 77.7856 44.9874C73.4121 39.9888 67.8932 37.4895 61.2288 37.4895C53.7314 37.4895 48.0042 40.093 44.0473 45.2999C40.0903 50.2985 38.1118 56.1302 38.1118 62.795V160.268C38.1118 167.974 40.2986 174.222 44.6721 179.013C49.2538 183.803 54.7727 186.198 61.2288 186.198C67.8932 186.198 73.4121 183.595 77.7856 178.388C82.3674 172.973 84.6582 166.933 84.6582 160.268V145.897C84.6582 145.064 85.0748 144.647 85.9078 144.647H121.208C122.041 144.647 122.458 145.064 122.458 145.897V160.268C122.458 172.139 119.646 182.866 114.023 192.446C108.608 202.027 101.319 209.733 92.1557 215.565C82.9922 221.188 72.6832 224 61.2288 224ZM146.551 220.876C145.718 220.876 145.301 220.355 145.301 219.314L145.614 4.68619C145.614 3.85309 146.134 3.43653 147.176 3.43653H181.851C182.893 3.43653 183.413 3.85309 183.413 4.68619L183.101 89.6625H229.96V4.68619C229.96 3.85309 230.376 3.43653 231.209 3.43653H265.885C266.926 3.43653 267.447 3.85309 267.447 4.68619L268.071 219.314C268.071 220.355 267.551 220.876 266.509 220.876H231.522C230.48 220.876 229.96 220.355 229.96 219.314V127.464H183.101V219.314C183.101 220.355 182.684 220.876 181.851 220.876H146.551ZM282.944 219.314L321.681 4.68619C321.889 3.85309 322.41 3.43653 323.243 3.43653H368.54C369.373 3.43653 369.893 3.85309 370.102 4.68619L407.276 219.314C407.485 220.355 407.068 220.876 406.027 220.876H371.351C370.518 220.876 369.997 220.355 369.789 219.314L366.353 196.508H323.868L320.431 219.314C320.223 220.355 319.702 220.876 318.869 220.876H284.194C283.361 220.876 282.944 220.355 282.944 219.314ZM330.115 163.079H360.105L347.297 75.2915L345.423 63.7322L344.173 75.2915L330.115 163.079ZM428.131 220.876C427.298 220.876 426.881 220.355 426.881 219.314L427.506 4.68619C427.506 3.85309 427.923 3.43653 428.756 3.43653H466.867C467.701 3.43653 468.429 3.85309 469.054 4.68619L497.482 45.9247L525.91 4.68619C526.534 3.85309 527.263 3.43653 528.096 3.43653H566.521C567.354 3.43653 567.77 3.85309 567.77 4.68619L568.395 219.314C568.395 220.355 567.978 220.876 567.145 220.876H531.845C531.012 220.876 530.595 220.355 530.595 219.314L530.283 59.9832L497.482 107.47L464.993 59.9832L464.681 219.314C464.681 220.355 464.264 220.876 463.431 220.876H428.131ZM596.232 220.876C595.191 220.876 594.67 220.355 594.67 219.314L595.295 4.68619C595.295 3.85309 595.711 3.43653 596.544 3.43653H656.524C675.684 3.43653 690.783 9.26824 701.82 20.9317C713.067 32.5951 718.69 48.424 718.69 68.4184C718.69 83.2059 715.774 96.0149 709.943 106.845C704.111 117.675 696.51 126.007 687.138 131.838C677.766 137.67 667.561 140.586 656.524 140.586H632.782V219.314C632.782 220.355 632.261 220.876 631.22 220.876H596.232ZM632.782 102.784H656.524C663.188 102.784 668.915 99.6597 673.705 93.4114C678.703 86.9549 681.203 78.6239 681.203 68.4184C681.203 60.2957 679.016 53.6309 674.642 48.424C670.269 43.2171 664.229 40.6137 656.524 40.6137L632.782 40.9261V102.784ZM817.493 220.876C816.66 220.876 816.244 220.355 816.244 219.314V41.2385H775.633C774.592 41.2385 774.071 40.7178 774.071 39.6764L774.383 4.68619C774.383 3.85309 774.8 3.43653 775.633 3.43653H894.342C895.383 3.43653 895.904 3.85309 895.904 4.68619V39.6764C895.904 40.7178 895.487 41.2385 894.654 41.2385H853.731L854.043 219.314C854.043 220.355 853.627 220.876 852.794 220.876H817.493ZM912.583 220.876C911.75 220.876 911.333 220.355 911.333 219.314L911.645 4.68619C911.645 3.85309 912.166 3.43653 913.207 3.43653H947.883C948.924 3.43653 949.445 3.85309 949.445 4.68619L949.133 89.6625H995.991V4.68619C995.991 3.85309 996.408 3.43653 997.241 3.43653H1031.92C1032.96 3.43653 1033.48 3.85309 1033.48 4.68619L1034.1 219.314C1034.1 220.355 1033.58 220.876 1032.54 220.876H997.553C996.512 220.876 995.991 220.355 995.991 219.314V127.464H949.133V219.314C949.133 220.355 948.716 220.876 947.883 220.876H912.583ZM1060.85 220.876C1060.01 220.876 1059.6 220.355 1059.6 219.314L1060.22 4.68619C1060.22 3.85309 1060.64 3.43653 1061.47 3.43653H1124.57C1135.82 3.43653 1146.13 6.24825 1155.5 11.8717C1165.08 17.2868 1172.68 24.6806 1178.31 34.053C1183.93 43.2171 1186.74 53.6309 1186.74 65.2943C1186.74 73.0005 1185.6 79.9777 1183.3 86.2259C1181.01 92.2659 1178.31 97.4728 1175.18 101.847C1172.06 106.012 1169.25 109.136 1166.75 111.219C1177.99 123.715 1183.62 138.399 1183.62 155.269L1183.93 219.314C1183.93 220.355 1183.41 220.876 1182.37 220.876H1147.07C1146.23 220.876 1145.82 220.563 1145.82 219.939V155.269C1145.82 147.771 1143.11 141.315 1137.7 135.9C1132.49 130.276 1126.03 127.464 1118.33 127.464H1097.71L1097.4 219.314C1097.4 220.355 1096.98 220.876 1096.15 220.876H1060.85ZM1097.71 89.9749H1124.57C1131.03 89.9749 1136.76 87.5797 1141.76 82.7894C1146.75 77.9991 1149.25 72.1674 1149.25 65.2943C1149.25 58.6295 1146.75 52.9019 1141.76 48.1116C1136.97 43.3212 1131.24 40.9261 1124.57 40.9261H1097.71V89.9749ZM1266.57 224C1255.32 224 1245.01 221.188 1235.64 215.565C1226.48 209.733 1219.09 202.131 1213.46 192.759C1207.84 183.178 1205.03 172.66 1205.03 161.205L1205.34 62.1702C1205.34 50.715 1208.05 40.3013 1213.46 30.9289C1219.09 21.5565 1226.58 14.0586 1235.95 8.43515C1245.33 2.81172 1255.53 0 1266.57 0C1277.82 0 1288.02 2.81172 1297.18 8.43515C1306.35 14.0586 1313.64 21.5565 1319.05 30.9289C1324.67 40.3013 1327.49 50.715 1327.49 62.1702L1327.8 161.205C1327.8 172.66 1324.99 183.178 1319.36 192.759C1313.95 202.131 1306.56 209.733 1297.18 215.565C1288.02 221.188 1277.82 224 1266.57 224ZM1266.57 186.198C1272.82 186.198 1278.23 183.699 1282.81 178.7C1287.6 173.493 1290 167.662 1290 161.205L1289.69 62.1702C1289.69 55.2971 1287.5 49.4654 1283.13 44.675C1278.75 39.8847 1273.23 37.4895 1266.57 37.4895C1260.11 37.4895 1254.59 39.8847 1250.01 44.675C1245.43 49.2571 1243.14 55.0888 1243.14 62.1702V161.205C1243.14 168.078 1245.43 174.014 1250.01 179.013C1254.59 183.803 1260.11 186.198 1266.57 186.198ZM1374.8 220.876C1373.97 220.876 1373.44 220.355 1373.24 219.314L1336.37 4.68619C1336.17 3.85309 1336.48 3.43653 1337.31 3.43653H1372.3C1373.13 3.43653 1373.65 3.85309 1373.86 4.68619L1393.85 145.897L1414.47 4.68619C1414.68 3.85309 1415.31 3.43653 1416.35 3.43653H1444.46C1445.29 3.43653 1445.82 3.85309 1446.02 4.68619L1466.33 145.897L1486.63 4.68619C1486.84 3.85309 1487.36 3.43653 1488.2 3.43653H1522.87C1523.91 3.43653 1524.33 3.85309 1524.12 4.68619L1486.95 219.314C1486.74 219.73 1486.43 220.147 1486.01 220.563C1485.59 220.772 1485.39 220.876 1485.39 220.876H1447.59C1446.96 220.876 1446.44 220.355 1446.02 219.314L1430.09 107.158L1414.16 219.314C1413.95 220.355 1413.43 220.876 1412.6 220.876H1374.8Z" stroke="white" stroke-opacity="0.25" stroke-width="2" mask="url(#path-1-inside-1_0_30)"/>
</svg>
