<svg width="599" height="779" viewBox="0 0 599 779" fill="none" xmlns="http://www.w3.org/2000/svg">
<g opacity="0.35" filter="url(#filter0_d_0_140)">
<path d="M299.599 12.7947C318.111 12.7947 333.118 9.93045 333.118 6.39729C333.118 2.86413 318.111 0 299.599 0C281.086 0 266.079 2.86413 266.079 6.39729C266.079 9.93045 281.086 12.7947 299.599 12.7947Z" fill="url(#paint0_linear_0_140)"/>
<path opacity="0.038462" d="M138.595 167.315C202.337 82.1811 266.079 5.90503 266.079 5.90503L332.019 5.90503C332.019 5.90503 395.761 81.1968 459.504 165.839C505.662 226.859 551.27 294.278 573.25 341.52C581.493 359.728 586.438 374.983 586.438 385.809C586.438 413.859 572.151 585.111 474.34 684.516C433.127 726.345 377.078 755.379 300.698 755.379C171.565 755.379 99.0307 676.15 58.9171 589.54C18.8035 503.422 10.5609 410.414 10.5609 384.825C11.6599 347.425 75.4022 252.449 138.595 167.315Z" fill="url(#paint1_linear_0_140)"/>
<path opacity="0.076923" d="M145.189 160.918C206.183 79.2286 267.728 5.90527 267.728 5.90527L331.47 5.90527C331.47 5.90527 393.014 78.2445 454.008 159.442C497.969 218.002 541.929 283.452 563.359 330.202C571.602 347.917 575.998 362.188 575.998 373.014C575.998 401.064 562.26 565.919 468.296 662.863C428.182 704.2 374.88 732.742 301.247 732.742C177.06 732.742 107.273 655.974 68.808 572.316C30.3429 488.659 22.6499 398.112 22.6499 372.522C22.6499 334.63 83.6445 242.607 145.189 160.918Z" fill="url(#paint2_linear_0_140)"/>
<path opacity="0.1154" d="M151.233 154.52C210.03 76.2758 268.827 5.90503 268.827 5.90503L329.821 5.90503C329.821 5.90503 389.167 75.2917 447.964 153.044C490.276 209.144 532.038 272.625 552.919 318.391C560.612 335.122 565.008 349.393 565.008 359.728C565.008 387.285 551.27 546.727 461.702 640.227C423.237 680.579 371.583 708.629 301.247 708.629C182.005 708.629 114.966 634.814 78.1498 553.124C41.3332 471.927 33.6401 383.841 33.6401 358.251C34.1896 321.836 92.4367 232.765 151.233 154.52Z" fill="url(#paint3_linear_0_140)"/>
<path opacity="0.1538" d="M157.278 147.631C213.327 72.339 269.926 5.41284 269.926 5.41284L328.173 5.41284C328.173 5.41284 385.321 71.3547 441.37 146.154C482.033 199.794 521.597 261.799 541.379 306.58C548.523 322.82 552.919 336.599 552.919 346.441C552.919 373.999 539.181 527.043 454.009 618.082C417.192 657.45 367.737 685.008 300.148 685.008C185.852 685.008 121.56 613.653 86.3922 534.424C51.2241 455.196 44.0806 370.062 44.0806 344.472C45.1796 309.041 101.229 222.923 157.278 147.631Z" fill="url(#paint4_linear_0_140)"/>
<path opacity="0.1923" d="M163.322 141.234C216.624 69.3865 271.574 5.41309 271.574 5.41309L327.623 5.41309C327.623 5.41309 382.573 68.4024 435.875 139.757C474.34 191.428 512.255 250.973 531.488 294.77C538.631 310.517 542.478 323.804 542.478 333.646C542.478 360.712 529.29 507.851 448.513 595.938C413.345 634.814 366.088 661.387 301.247 661.879C192.445 661.879 130.901 593.477 96.8324 516.709C63.3128 439.941 56.1693 357.267 56.1693 331.186C56.1693 295.754 110.02 213.081 163.322 141.234Z" fill="url(#paint5_linear_0_140)"/>
<path opacity="0.2308" d="M169.366 134.836C220.47 66.434 272.673 5.90527 272.673 5.90527L325.974 5.90527C325.974 5.90527 378.727 65.9418 429.83 133.852C466.647 183.062 502.364 240.639 521.047 283.452C527.641 298.707 531.488 311.501 531.488 320.851C531.488 347.917 518.3 489.151 441.919 574.285C407.85 612.177 363.34 638.75 301.247 638.75C197.391 638.75 138.594 572.808 106.174 498.501C73.7533 424.193 67.7087 343.98 67.7087 317.899C67.7087 282.96 118.263 203.239 169.366 134.836Z" fill="url(#paint6_linear_0_140)"/>
<path opacity="0.2692" d="M175.411 128.439C223.767 63.4812 273.772 5.90503 273.772 5.90503L324.326 5.90503C324.326 5.90503 374.88 62.989 423.236 127.455C458.404 174.204 491.924 229.812 509.508 272.133C515.553 286.896 519.949 299.199 519.949 308.057C519.949 335.122 506.76 469.959 434.776 552.632C402.355 589.54 360.044 615.621 301.247 615.621C202.337 615.621 146.288 552.632 115.516 480.785C84.7436 408.938 78.699 330.693 78.699 305.104C78.699 270.165 127.055 193.397 175.411 128.439Z" fill="url(#paint7_linear_0_140)"/>
<path opacity="0.3077" d="M181.456 122.041C227.064 60.5285 274.871 5.90503 274.871 5.90503L323.227 5.90503C323.227 5.90503 371.583 60.0365 417.192 121.057C450.162 165.347 482.582 219.478 499.067 260.323C504.562 274.594 508.958 286.404 508.958 294.77C508.958 321.344 496.32 450.767 428.182 529.995C397.41 566.411 356.747 591.508 301.247 592C207.282 592 153.981 531.472 124.857 462.085C95.7335 392.699 90.2384 316.914 90.2384 291.325C90.2384 257.37 135.847 183.554 181.456 122.041Z" fill="url(#paint8_linear_0_140)"/>
<path opacity="0.3462" d="M187.5 115.644C230.911 57.5759 275.97 5.90503 275.97 5.90503L321.579 5.90503C321.579 5.90503 367.737 57.0838 410.598 114.66C441.92 156.489 472.142 208.652 488.078 249.004C493.573 262.291 497.419 273.609 497.419 282.467C497.419 309.041 484.781 432.067 421.039 508.835C391.365 544.266 353.45 569.364 300.698 569.364C211.679 569.364 161.124 511.788 133.649 444.369C106.174 377.443 100.679 304.12 100.679 278.53C101.229 244.083 144.639 173.712 187.5 115.644Z" fill="url(#paint9_linear_0_140)"/>
<path opacity="0.3846" d="M193.545 109.247C234.208 54.6232 277.069 5.90503 277.069 5.90503L319.93 5.90503C319.93 5.90503 363.89 54.1312 404.553 108.263C434.226 147.631 462.251 197.825 477.637 237.194C482.582 249.988 486.429 260.815 486.429 269.18C486.429 295.754 474.34 412.875 414.444 486.198C386.42 520.645 350.702 545.251 300.698 545.251C216.624 545.251 168.817 490.135 142.991 425.669C117.164 361.204 112.219 290.341 112.219 264.751C112.219 231.288 152.882 163.87 193.545 109.247Z" fill="url(#paint10_linear_0_140)"/>
<path opacity="0.4231" d="M200.139 102.849C238.054 51.6707 279.267 5.90503 279.267 5.90503L319.93 5.90503C319.93 5.90503 361.142 51.1785 399.608 101.865C427.083 138.773 453.459 186.999 467.746 225.383C472.142 237.686 475.988 248.02 475.988 255.894C475.988 281.975 463.899 393.683 408.949 464.053C382.573 498.009 349.053 521.63 301.796 522.122C222.668 522.122 177.609 469.959 153.431 407.462C129.253 345.456 124.307 277.054 124.307 251.465C123.758 218.494 161.673 154.028 200.139 102.849Z" fill="url(#paint11_linear_0_140)"/>
<path opacity="0.4615" d="M206.183 95.96C241.901 48.2259 280.366 5.41284 280.366 5.41284L318.281 5.41284C318.281 5.41284 357.296 47.7337 393.014 94.9757C418.84 129.423 443.018 175.681 456.756 213.573C461.152 225.383 464.449 235.225 464.449 242.607C464.449 268.688 452.909 373.998 401.806 441.417C376.529 474.388 345.757 497.516 301.247 498.009C227.064 498.009 184.753 448.306 162.223 388.762C139.694 328.725 135.298 262.783 135.298 237.194C134.748 205.699 170.466 143.694 206.183 95.96Z" fill="url(#paint12_linear_0_140)"/>
<path opacity="0.5" d="M212.228 89.5625C245.198 45.2732 281.465 5.41284 281.465 5.41284L316.633 5.41284C316.633 5.41284 353.449 44.2891 386.42 88.5784C410.048 120.565 432.578 165.347 445.766 201.762C449.612 213.081 452.909 222.431 452.909 229.812C452.909 255.894 441.37 355.299 394.662 419.764C371.033 452.243 341.91 474.88 300.697 474.88C231.46 474.88 191.896 428.13 171.015 370.554C150.134 312.978 145.738 249.496 145.738 223.907C145.738 192.412 179.258 133.852 212.228 89.5625Z" fill="url(#paint13_linear_0_140)"/>
<path opacity="0.5385" d="M218.273 83.1653C249.045 42.3207 282.564 5.90503 282.564 5.90503L315.534 5.90503C315.534 5.90503 350.153 41.8286 380.925 82.6732C402.905 112.199 423.237 155.012 435.326 190.936C439.172 201.27 441.92 210.62 441.92 217.51C441.92 243.099 430.93 337.091 388.069 398.112C366.089 429.606 339.163 451.751 300.698 451.751C236.956 452.243 200.139 407.462 180.357 352.346C161.124 297.23 157.278 236.21 157.278 210.62C157.278 179.618 187.501 124.01 218.273 83.1653Z" fill="url(#paint14_linear_0_140)"/>
<path opacity="0.5769" d="M224.317 76.768C252.341 39.3681 283.663 5.90503 283.663 5.90503L313.885 5.90503C313.885 5.90503 346.306 38.876 374.331 76.2759C394.662 103.342 412.796 144.186 424.335 179.125C427.632 188.968 430.38 197.333 430.38 204.223C430.38 229.812 419.939 317.899 380.925 375.967C360.043 406.969 335.866 428.13 300.148 428.622C241.351 429.114 207.282 387.285 189.149 334.63C171.565 281.975 167.718 223.415 167.718 197.825C168.268 166.823 196.292 114.168 224.317 76.768Z" fill="url(#paint15_linear_0_140)"/>
<path opacity="0.6154" d="M230.361 70.3708C255.639 36.4157 284.762 5.90527 284.762 5.90527L312.237 5.90527C312.237 5.90527 342.46 35.9235 367.737 69.8787C385.87 94.4838 402.905 133.36 413.345 167.315C416.093 176.665 418.84 184.539 418.84 190.936C418.84 216.526 408.949 298.707 373.781 353.33C354.549 383.349 332.569 404.017 299.599 404.509C245.748 405.001 214.426 365.633 197.941 315.439C182.005 265.244 178.708 209.144 178.708 183.555C179.807 154.028 205.084 104.326 230.361 70.3708Z" fill="url(#paint16_linear_0_140)"/>
<path opacity="0.6538" d="M236.406 63.9733C259.485 33.4628 285.861 5.90503 285.861 5.90503L310.588 5.90503C310.588 5.90503 338.613 32.9707 361.692 63.4811C378.177 85.6258 393.014 122.534 402.905 155.997C405.652 164.854 407.85 172.236 407.85 178.633C407.85 203.731 398.509 280.499 367.737 332.17C350.152 361.696 330.371 381.872 300.148 381.872C251.242 382.364 222.668 345.949 208.381 297.723C194.094 249.988 190.797 196.349 190.797 170.76C190.797 140.741 213.876 94.4837 236.406 63.9733Z" fill="url(#paint17_linear_0_140)"/>
<path opacity="0.6923" d="M242.451 57.5758C262.782 30.5101 287.51 5.90503 287.51 5.90503L310.039 5.90503C310.039 5.90503 335.866 30.0182 356.197 57.0839C371.034 76.768 383.672 111.707 392.464 144.186C394.662 152.552 396.861 159.441 396.861 165.347C396.861 190.444 388.069 261.307 361.143 310.025C345.207 339.059 327.623 358.251 300.148 358.743C256.188 359.235 230.362 325.28 217.723 280.007C205.085 234.733 202.337 183.062 202.337 157.965C201.787 127.947 222.119 84.6415 242.451 57.5758Z" fill="url(#paint18_linear_0_140)"/>
<path opacity="0.7308" d="M249.044 51.1786C266.628 27.0655 289.158 5.90503 289.158 5.90503L308.94 5.90503C308.94 5.90503 332.569 27.0654 350.153 50.6864C362.791 67.91 373.781 101.373 382.024 132.868C384.222 140.249 385.87 147.139 385.87 152.552C385.87 177.649 377.628 242.607 354.549 287.88C340.262 315.93 324.326 334.63 300.148 335.122C261.133 335.615 238.054 304.612 227.064 261.307C216.074 218.002 213.327 169.283 213.327 143.694C213.327 115.152 230.911 74.7995 249.044 51.1786Z" fill="url(#paint19_linear_0_140)"/>
<path opacity="0.7692" d="M255.089 44.2896C270.475 23.6212 290.257 5.41333 290.257 5.41333L307.291 5.41333C307.291 5.41333 328.722 23.6212 343.559 43.7974C354.549 58.5605 363.89 90.0552 371.034 120.566C372.682 127.455 374.331 133.852 374.331 138.773C374.331 163.379 366.638 223.415 347.405 265.244C334.767 292.802 321.029 311.01 299.598 311.01C265.529 311.502 245.198 282.96 235.856 242.607C225.965 201.763 224.317 155.505 224.317 129.916C224.317 101.866 239.703 64.9579 255.089 44.2896Z" fill="url(#paint20_linear_0_140)"/>
<path opacity="0.8077" d="M261.133 37.8916C273.772 20.668 291.356 5.41284 291.356 5.41284L306.193 5.41284C306.193 5.41284 325.425 20.6681 338.064 37.3997C347.405 49.7022 354.549 79.2283 360.593 109.247C361.692 115.644 363.341 121.549 363.341 126.47C363.341 151.075 356.747 205.207 340.811 243.591C329.821 270.657 318.282 287.88 300.148 288.372C271.024 288.865 253.44 263.275 245.747 224.891C237.505 186.507 235.856 142.71 235.856 117.12C235.856 89.0704 248.495 55.1153 261.133 37.8916Z" fill="url(#paint21_linear_0_140)"/>
<path opacity="0.8462" d="M267.178 31.4944C277.618 17.7155 292.455 5.90503 292.455 5.90503L304.544 5.90503C304.544 5.90503 321.029 17.7155 331.469 31.4944C338.613 41.3365 344.657 68.8943 349.603 97.9284C350.702 103.834 351.801 108.755 351.801 113.676C351.801 137.789 346.306 186.999 333.667 221.939C324.326 248.512 314.984 264.752 299.598 265.244C275.42 265.736 260.584 242.607 254.539 206.683C247.945 170.76 246.846 129.423 246.846 103.834C246.846 76.2759 256.737 45.2733 267.178 31.4944Z" fill="url(#paint22_linear_0_140)"/>
<path opacity="0.8846" d="M273.223 25.0974C280.916 14.7632 293.554 5.90527 293.554 5.90527L302.896 5.90527C302.896 5.90527 317.183 14.7632 324.876 25.0974C330.371 32.4789 334.217 58.0683 338.613 86.1182C339.163 91.0392 340.262 95.9602 340.262 100.389C340.262 124.502 335.866 168.299 327.074 199.302C319.93 225.383 312.237 240.639 299.599 241.131C280.916 241.623 268.826 221.447 263.881 187.984C258.935 154.52 257.836 115.152 257.836 90.0549C257.836 63.4814 265.53 35.4315 273.223 25.0974Z" fill="url(#paint23_linear_0_140)"/>
<path opacity="0.9231" d="M279.267 18.6997C284.213 11.8102 294.653 5.90503 294.653 5.90503L301.797 5.90503C301.797 5.90503 313.886 11.8102 319.381 18.6997C323.227 23.6207 325.425 47.2417 328.722 74.7995C329.272 79.2284 329.821 83.6574 329.821 87.5942C329.821 111.707 326.524 149.599 321.029 177.649C315.534 203.239 309.49 218.002 300.148 218.002C286.411 218.494 277.069 200.778 273.772 169.776C270.475 138.773 269.926 101.865 269.926 76.768C269.376 50.1944 274.322 25.5891 279.267 18.6997Z" fill="url(#paint24_linear_0_140)"/>
<path opacity="0.9615" d="M285.311 12.3024C288.059 8.85767 296.301 5.90503 296.301 5.90503L300.698 5.90503C300.698 5.90503 310.589 8.85767 313.336 12.3024C314.985 14.7629 316.083 36.4154 317.732 62.989C317.732 66.9258 318.282 70.8626 318.282 74.7995C318.282 98.4204 316.633 131.391 313.886 155.505C311.138 180.602 306.193 194.381 299.599 194.873C290.806 195.365 284.212 180.602 282.564 152.06C280.915 123.518 280.366 89.0706 280.366 63.9733C280.366 37.3997 283.113 15.7471 285.311 12.3024Z" fill="url(#paint25_linear_0_140)"/>
<path d="M307.292 133.36C307.292 157.473 303.445 170.76 299.599 171.252C295.752 171.744 291.906 159.441 291.906 133.36C291.906 107.278 291.906 75.2916 291.906 49.7022C291.906 24.1129 291.906 5.41284 291.906 5.41284L299.599 5.41284L307.292 5.41284C307.292 5.41284 307.292 25.097 307.292 51.1785C307.292 77.26 307.292 109.247 307.292 133.36Z" fill="url(#paint26_linear_0_140)"/>
</g>
<defs>
<filter id="filter0_d_0_140" x="6.56091" y="0" width="583.877" height="763.379" filterUnits="userSpaceOnUse" color-interpolation-filters="sRGB">
<feFlood flood-opacity="0" result="BackgroundImageFix"/>
<feColorMatrix in="SourceAlpha" type="matrix" values="0 0 0 0 0 0 0 0 0 0 0 0 0 0 0 0 0 0 127 0" result="hardAlpha"/>
<feOffset dy="4"/>
<feGaussianBlur stdDeviation="2"/>
<feComposite in2="hardAlpha" operator="out"/>
<feColorMatrix type="matrix" values="0 0 0 0 0 0 0 0 0 0 0 0 0 0 0 0 0 0 0.25 0"/>
<feBlend mode="normal" in2="BackgroundImageFix" result="effect1_dropShadow_0_140"/>
<feBlend mode="normal" in="SourceGraphic" in2="effect1_dropShadow_0_140" result="shape"/>
</filter>
<linearGradient id="paint0_linear_0_140" x1="299.702" y1="0.476628" x2="299.702" y2="12.356" gradientUnits="userSpaceOnUse">
<stop stop-color="#ECBF24"/>
<stop offset="0.3728" stop-color="#ECBF24" stop-opacity="0.35"/>
<stop offset="1" stop-color="#ECBF24" stop-opacity="0"/>
</linearGradient>
<linearGradient id="paint1_linear_0_140" x1="299.39" y1="33.8245" x2="299.39" y2="729.681" gradientUnits="userSpaceOnUse">
<stop stop-color="#ECBF24"/>
<stop offset="0.3728" stop-color="#ECBF24" stop-opacity="0.35"/>
<stop offset="1" stop-color="#ECBF24" stop-opacity="0"/>
</linearGradient>
<linearGradient id="paint2_linear_0_140" x1="300.179" y1="32.9815" x2="300.179" y2="707.821" gradientUnits="userSpaceOnUse">
<stop stop-color="#ECBF24"/>
<stop offset="0.3728" stop-color="#ECBF24" stop-opacity="0.35"/>
<stop offset="1" stop-color="#ECBF24" stop-opacity="0"/>
</linearGradient>
<linearGradient id="paint3_linear_0_140" x1="300.145" y1="32.083" x2="300.145" y2="684.534" gradientUnits="userSpaceOnUse">
<stop stop-color="#ECBF24"/>
<stop offset="0.3728" stop-color="#ECBF24" stop-opacity="0.35"/>
<stop offset="1" stop-color="#ECBF24" stop-opacity="0"/>
</linearGradient>
<linearGradient id="paint4_linear_0_140" x1="299.286" y1="30.7292" x2="299.286" y2="661.706" gradientUnits="userSpaceOnUse">
<stop stop-color="#ECBF24"/>
<stop offset="0.3728" stop-color="#ECBF24" stop-opacity="0.35"/>
<stop offset="1" stop-color="#ECBF24" stop-opacity="0"/>
</linearGradient>
<linearGradient id="paint5_linear_0_140" x1="300.075" y1="29.8679" x2="300.075" y2="639.371" gradientUnits="userSpaceOnUse">
<stop stop-color="#ECBF24"/>
<stop offset="0.3728" stop-color="#ECBF24" stop-opacity="0.35"/>
<stop offset="1" stop-color="#ECBF24" stop-opacity="0"/>
</linearGradient>
<linearGradient id="paint6_linear_0_140" x1="300.315" y1="29.4801" x2="300.315" y2="617.052" gradientUnits="userSpaceOnUse">
<stop stop-color="#ECBF24"/>
<stop offset="0.3728" stop-color="#ECBF24" stop-opacity="0.35"/>
<stop offset="1" stop-color="#ECBF24" stop-opacity="0"/>
</linearGradient>
<linearGradient id="paint7_linear_0_140" x1="300.006" y1="28.6183" x2="300.006" y2="594.716" gradientUnits="userSpaceOnUse">
<stop stop-color="#ECBF24"/>
<stop offset="0.3728" stop-color="#ECBF24" stop-opacity="0.35"/>
<stop offset="1" stop-color="#ECBF24" stop-opacity="0"/>
</linearGradient>
<linearGradient id="paint8_linear_0_140" x1="300.246" y1="27.7383" x2="300.246" y2="571.905" gradientUnits="userSpaceOnUse">
<stop stop-color="#ECBF24"/>
<stop offset="0.3728" stop-color="#ECBF24" stop-opacity="0.35"/>
<stop offset="1" stop-color="#ECBF24" stop-opacity="0"/>
</linearGradient>
<linearGradient id="paint9_linear_0_140" x1="299.662" y1="26.8951" x2="299.662" y2="550.044" gradientUnits="userSpaceOnUse">
<stop stop-color="#ECBF24"/>
<stop offset="0.3728" stop-color="#ECBF24" stop-opacity="0.35"/>
<stop offset="1" stop-color="#ECBF24" stop-opacity="0"/>
</linearGradient>
<linearGradient id="paint10_linear_0_140" x1="299.902" y1="25.9968" x2="299.902" y2="526.758" gradientUnits="userSpaceOnUse">
<stop stop-color="#ECBF24"/>
<stop offset="0.3728" stop-color="#ECBF24" stop-opacity="0.35"/>
<stop offset="1" stop-color="#ECBF24" stop-opacity="0"/>
</linearGradient>
<linearGradient id="paint11_linear_0_140" x1="300.688" y1="25.1352" x2="300.688" y2="504.422" gradientUnits="userSpaceOnUse">
<stop stop-color="#ECBF24"/>
<stop offset="0.3728" stop-color="#ECBF24" stop-opacity="0.35"/>
<stop offset="1" stop-color="#ECBF24" stop-opacity="0"/>
</linearGradient>
<linearGradient id="paint12_linear_0_140" x1="300.379" y1="23.7631" x2="300.379" y2="481.119" gradientUnits="userSpaceOnUse">
<stop stop-color="#ECBF24"/>
<stop offset="0.3728" stop-color="#ECBF24" stop-opacity="0.35"/>
<stop offset="1" stop-color="#ECBF24" stop-opacity="0"/>
</linearGradient>
<linearGradient id="paint13_linear_0_140" x1="299.798" y1="22.9015" x2="299.798" y2="458.783" gradientUnits="userSpaceOnUse">
<stop stop-color="#ECBF24"/>
<stop offset="0.3728" stop-color="#ECBF24" stop-opacity="0.35"/>
<stop offset="1" stop-color="#ECBF24" stop-opacity="0"/>
</linearGradient>
<linearGradient id="paint14_linear_0_140" x1="300.039" y1="22.5139" x2="300.039" y2="436.468" gradientUnits="userSpaceOnUse">
<stop stop-color="#ECBF24"/>
<stop offset="0.3728" stop-color="#ECBF24" stop-opacity="0.35"/>
<stop offset="1" stop-color="#ECBF24" stop-opacity="0"/>
</linearGradient>
<linearGradient id="paint15_linear_0_140" x1="299.455" y1="21.6523" x2="299.455" y2="414.132" gradientUnits="userSpaceOnUse">
<stop stop-color="#ECBF24"/>
<stop offset="0.3728" stop-color="#ECBF24" stop-opacity="0.35"/>
<stop offset="1" stop-color="#ECBF24" stop-opacity="0"/>
</linearGradient>
<linearGradient id="paint16_linear_0_140" x1="299.146" y1="20.7543" x2="299.146" y2="390.846" gradientUnits="userSpaceOnUse">
<stop stop-color="#ECBF24"/>
<stop offset="0.3728" stop-color="#ECBF24" stop-opacity="0.35"/>
<stop offset="1" stop-color="#ECBF24" stop-opacity="0"/>
</linearGradient>
<linearGradient id="paint17_linear_0_140" x1="299.659" y1="19.9108" x2="299.659" y2="368.986" gradientUnits="userSpaceOnUse">
<stop stop-color="#ECBF24"/>
<stop offset="0.3728" stop-color="#ECBF24" stop-opacity="0.35"/>
<stop offset="1" stop-color="#ECBF24" stop-opacity="0"/>
</linearGradient>
<linearGradient id="paint18_linear_0_140" x1="299.894" y1="19.0492" x2="299.894" y2="346.65" gradientUnits="userSpaceOnUse">
<stop stop-color="#ECBF24"/>
<stop offset="0.3728" stop-color="#ECBF24" stop-opacity="0.35"/>
<stop offset="1" stop-color="#ECBF24" stop-opacity="0"/>
</linearGradient>
<linearGradient id="paint19_linear_0_140" x1="299.865" y1="18.1693" x2="299.865" y2="323.84" gradientUnits="userSpaceOnUse">
<stop stop-color="#ECBF24"/>
<stop offset="0.3728" stop-color="#ECBF24" stop-opacity="0.35"/>
<stop offset="1" stop-color="#ECBF24" stop-opacity="0"/>
</linearGradient>
<linearGradient id="paint20_linear_0_140" x1="299.556" y1="16.7977" x2="299.556" y2="300.538" gradientUnits="userSpaceOnUse">
<stop stop-color="#ECBF24"/>
<stop offset="0.3728" stop-color="#ECBF24" stop-opacity="0.35"/>
<stop offset="1" stop-color="#ECBF24" stop-opacity="0"/>
</linearGradient>
<linearGradient id="paint21_linear_0_140" x1="299.796" y1="15.954" x2="299.796" y2="278.677" gradientUnits="userSpaceOnUse">
<stop stop-color="#ECBF24"/>
<stop offset="0.3728" stop-color="#ECBF24" stop-opacity="0.35"/>
<stop offset="1" stop-color="#ECBF24" stop-opacity="0"/>
</linearGradient>
<linearGradient id="paint22_linear_0_140" x1="299.486" y1="15.5662" x2="299.486" y2="256.359" gradientUnits="userSpaceOnUse">
<stop stop-color="#ECBF24"/>
<stop offset="0.3728" stop-color="#ECBF24" stop-opacity="0.35"/>
<stop offset="1" stop-color="#ECBF24" stop-opacity="0"/>
</linearGradient>
<linearGradient id="paint23_linear_0_140" x1="299.176" y1="14.6683" x2="299.176" y2="233.074" gradientUnits="userSpaceOnUse">
<stop stop-color="#ECBF24"/>
<stop offset="0.3728" stop-color="#ECBF24" stop-opacity="0.35"/>
<stop offset="1" stop-color="#ECBF24" stop-opacity="0"/>
</linearGradient>
<linearGradient id="paint24_linear_0_140" x1="299.945" y1="13.8065" x2="299.945" y2="210.739" gradientUnits="userSpaceOnUse">
<stop stop-color="#ECBF24"/>
<stop offset="0.3728" stop-color="#ECBF24" stop-opacity="0.35"/>
<stop offset="1" stop-color="#ECBF24" stop-opacity="0"/>
</linearGradient>
<linearGradient id="paint25_linear_0_140" x1="299.382" y1="12.9449" x2="299.382" y2="188.405" gradientUnits="userSpaceOnUse">
<stop stop-color="#ECBF24"/>
<stop offset="0.3728" stop-color="#ECBF24" stop-opacity="0.35"/>
<stop offset="1" stop-color="#ECBF24" stop-opacity="0"/>
</linearGradient>
<linearGradient id="paint26_linear_0_140" x1="299.622" y1="11.5912" x2="299.622" y2="165.579" gradientUnits="userSpaceOnUse">
<stop stop-color="#ECBF24"/>
<stop offset="0.3728" stop-color="#ECBF24" stop-opacity="0.35"/>
<stop offset="1" stop-color="#ECBF24" stop-opacity="0"/>
</linearGradient>
</defs>
</svg>
