<svg width="47" height="46" viewBox="0 0 47 46" fill="none" xmlns="http://www.w3.org/2000/svg">
<path d="M45.6629 23C45.6629 35.3394 35.5906 45.35 23.1565 45.35C10.7223 45.35 0.65 35.3394 0.65 23C0.65 10.6606 10.7223 0.65 23.1565 0.65C35.5906 0.65 45.6629 10.6606 45.6629 23Z" stroke="#ECBF24" stroke-width="1.3"/>
<path d="M22.7037 34.3333H28.5556V32H22.7037C17.6243 32 13.3407 27.73 13.3407 22.6667C13.3407 17.6033 17.6243 13.3333 22.7037 13.3333C27.7831 13.3333 32.0667 17.6033 32.0667 22.6667V24.335C32.0667 25.2567 31.2357 26.1667 30.3111 26.1667C29.3865 26.1667 28.5556 25.2567 28.5556 24.335V22.6667C28.5556 19.4467 25.9339 16.8333 22.7037 16.8333C19.4735 16.8333 16.8519 19.4467 16.8519 22.6667C16.8519 25.8867 19.4735 28.5 22.7037 28.5C24.3188 28.5 25.7935 27.8467 26.8468 26.785C27.6076 27.8233 28.9184 28.5 30.3111 28.5C32.6167 28.5 34.4074 26.6333 34.4074 24.335V22.6667C34.4074 16.2267 29.1642 11 22.7037 11C16.2433 11 11 16.2267 11 22.6667C11 29.1067 16.2433 34.3333 22.7037 34.3333ZM22.7037 26.1667C20.7609 26.1667 19.1926 24.6033 19.1926 22.6667C19.1926 20.73 20.7609 19.1667 22.7037 19.1667C24.6465 19.1667 26.2148 20.73 26.2148 22.6667C26.2148 24.6033 24.6465 26.1667 22.7037 26.1667Z" fill="#ECBF24"/>
</svg>
