<svg width="47" height="46" viewBox="0 0 47 46" fill="none" xmlns="http://www.w3.org/2000/svg">
<path d="M13.2682 16.0551L13.2682 16.0553C14.6782 20.0497 16.9724 23.6764 19.9805 26.6664L19.9807 26.6666C22.9802 29.6652 26.6185 31.9521 30.6257 33.3578C31.5564 33.6841 32.6238 33.4121 33.3806 32.6578L35.0529 30.9908C35.0529 30.9907 35.053 30.9907 35.053 30.9907C35.1526 30.891 35.2298 30.7715 35.2795 30.6399C35.3292 30.5083 35.3504 30.3677 35.3415 30.2274C35.3326 30.087 35.2939 29.9501 35.228 29.8258C35.162 29.7014 35.0703 29.5925 34.9589 29.5061L35.0201 29.427L34.9589 29.5061L31.2314 26.6153C31.1122 26.523 30.9735 26.4588 30.8258 26.4277C30.6782 26.3966 30.5253 26.3993 30.3789 26.4357L13.2682 16.0551ZM13.2682 16.0551C12.9394 15.128 13.2135 14.0643 13.9704 13.3098L15.6427 11.6428C15.7426 11.5434 15.8625 11.4662 15.9945 11.4165C16.1266 11.3667 16.2678 11.3455 16.4087 11.3542C16.5496 11.3629 16.6871 11.4014 16.8119 11.467C16.9368 11.5327 17.0462 11.624 17.133 11.7349M13.2682 16.0551L17.133 11.7349M14.4532 10.1308C14.7085 9.91395 14.9998 9.74222 15.3147 9.62362C15.702 9.47771 16.116 9.41557 16.5292 9.44131C16.9425 9.46706 17.3455 9.58011 17.7116 9.77296C18.0777 9.96582 18.3985 10.2341 18.6527 10.56L21.5508 14.2756C22.1026 14.9805 22.2972 15.9008 22.0794 16.7677C22.0794 16.7677 22.0794 16.7677 22.0794 16.7677L21.1949 20.2961L21.1949 20.2961C21.1531 20.4624 21.1553 20.6366 21.2011 20.8019C21.2469 20.9671 21.3349 21.1177 21.4564 21.239C21.4564 21.239 21.4565 21.239 21.4565 21.239M14.4532 10.1308L21.4565 21.239M14.4532 10.1308V10.1161L14.2826 10.286L12.6102 11.9513L12.6102 11.9514C11.3914 13.168 10.8515 14.9898 11.452 16.6924L11.452 16.6924C12.9586 20.958 15.4092 24.8306 18.6221 28.0232C21.825 31.2253 25.7099 33.6676 29.9888 35.1689L29.9889 35.1689C31.6964 35.7674 33.5237 35.2294 34.7425 34.0145L36.4148 32.3475C37.6576 31.1103 37.5289 29.0652 36.1417 27.9903L32.4142 25.1012C32.4142 25.1012 32.4142 25.1012 32.4142 25.1012C32.0647 24.8301 31.6579 24.6419 31.2246 24.5506C30.7913 24.4594 30.3429 24.4675 29.9133 24.5745L29.9133 24.5745L26.3754 25.4562L26.3754 25.4562C26.2084 25.4979 26.0334 25.4957 25.8675 25.45C25.7016 25.4043 25.5505 25.3165 25.4288 25.1953C25.4288 25.1953 25.4288 25.1953 25.4288 25.1953M14.4532 10.1308L25.4288 25.1953M21.4565 21.239L25.4288 25.1953M21.4565 21.239L25.4288 25.1953M17.133 11.7349L20.0346 15.4523C20.1272 15.571 20.1915 15.7091 20.2227 15.8562C20.2539 16.0033 20.2512 16.1555 20.2147 16.3014L17.133 11.7349ZM26.841 27.3173L30.3788 26.4357L20.2147 16.3015L19.3303 19.828C19.2077 20.3159 19.214 20.8272 19.3486 21.3119C19.4831 21.7967 19.7414 22.2384 20.098 22.594L24.0669 26.5521L24.067 26.5521C24.4237 26.9076 24.8668 27.165 25.3529 27.2991C25.839 27.4331 26.3517 27.4394 26.841 27.3173C26.841 27.3173 26.841 27.3173 26.841 27.3173Z" fill="#ECBF24" stroke="#ECBF24" stroke-width="0.2"/>
<path d="M45.9418 23C45.9418 35.3394 35.8695 45.35 23.4354 45.35C11.0012 45.35 0.9289 35.3394 0.9289 23C0.9289 10.6606 11.0012 0.65 23.4354 0.65C35.8695 0.65 45.9418 10.6606 45.9418 23Z" stroke="#ECBF24" stroke-width="1.3"/>
</svg>
